<?xml version="1.0" encoding="iso-8859-1"?>
<!-- Uploaded to: SVG Repo, www.svgrepo.com, Generator: SVG Repo Mixer Tools -->
<svg version="1.1" id="Layer_1" xmlns="http://www.w3.org/2000/svg" xmlns:xlink="http://www.w3.org/1999/xlink" 
	 viewBox="0 0 512 512" xml:space="preserve">
<path style="fill:#6FB0B6;" d="M140.8,396.8c-70.579,0-128-57.421-128-128c0-67.311,52.224-122.65,118.281-127.633
	C142.925,81.852,194.782,38.4,256,38.4s113.075,43.452,124.919,102.767C446.976,146.15,499.2,201.489,499.2,268.8
	c0,70.579-57.421,128-128,128H140.8z"/>
<polygon style="fill:#BDC4D0;" points="281.6,294.4 281.6,210.108 365.892,294.4 "/>
<polygon style="fill:#FEEBC7;" points="153.6,473.6 153.6,217.6 281.6,217.6 281.6,294.4 358.4,294.4 358.4,473.6 "/>
<g>
	<rect x="192" y="332.8" style="fill:#573A32;" width="128" height="25.6"/>
	<rect x="192" y="384" style="fill:#573A32;" width="128" height="25.6"/>
	<path style="fill:#573A32;" d="M391.305,129.434C374.98,68.949,320.162,25.6,256,25.6S137.028,68.949,120.695,129.434
		C52.54,139.213,0,197.982,0,268.8c0,77.636,63.164,140.8,140.8,140.8v76.8h230.4v-76.8c77.636,0,140.8-63.164,140.8-140.8
		C512,197.982,459.46,139.213,391.305,129.434z M345.6,460.8H166.4V230.4h102.4v76.8h76.8V460.8z M294.4,281.6v-40.593
		l40.593,40.593H294.4z M371.2,384V281.6l-76.8-76.8H140.8V384c-63.625,0-115.2-51.575-115.2-115.2s51.575-115.2,115.2-115.2
		c0.435,0,0.845,0.119,1.28,0.128C148.463,96.145,196.719,51.2,256,51.2s107.537,44.945,113.92,102.528
		c0.435-0.009,0.845-0.128,1.28-0.128c63.625,0,115.2,51.575,115.2,115.2S434.825,384,371.2,384z"/>
</g>
</svg>